<svg xmlns="http://www.w3.org/2000/svg" width="1440" height="900" viewBox="0 0 1440 900" font-family="'SF Pro Display','SF Pro Text',-apple-system,'Helvetica Neue',Arial,sans-serif">
  <defs>
    <linearGradient id="backdrop" x1="0" y1="0" x2="0.6" y2="1">
      <stop offset="0" stop-color="#1A1622"/><stop offset="1" stop-color="#0C0C10"/>
    </linearGradient>
    <radialGradient id="glow" cx="0.18" cy="0.12" r="0.5">
      <stop offset="0" stop-color="#5B4BA0" stop-opacity="0.35"/><stop offset="1" stop-color="#5B4BA0" stop-opacity="0"/>
    </radialGradient>
    <linearGradient id="sidePurple" x1="0" y1="0" x2="0" y2="1">
      <stop offset="0" stop-color="#7B6AC0" stop-opacity="0.20"/><stop offset="0.34" stop-color="#7B6AC0" stop-opacity="0"/>
    </linearGradient>
    <linearGradient id="sideSheen" x1="0" y1="0" x2="0" y2="1">
      <stop offset="0" stop-color="#FFFFFF" stop-opacity="0.10"/><stop offset="0.28" stop-color="#FFFFFF" stop-opacity="0"/>
    </linearGradient>
    <filter id="winShadow" x="-20%" y="-20%" width="140%" height="140%"><feDropShadow dx="0" dy="24" stdDeviation="40" flood-color="#000" flood-opacity="0.5"/></filter>
    <clipPath id="winClip"><rect x="40" y="32" width="1360" height="836" rx="22"/></clipPath>
    <clipPath id="valClip"><rect x="312" y="192" width="660" height="570"/></clipPath>
  </defs>

  <!-- backdrop with soft glow (subtle, lets the glass sidebar read) -->
  <rect width="1440" height="900" fill="url(#backdrop)"/>
  <rect width="1440" height="900" fill="url(#glow)"/>

  <!-- window -->
  <g filter="url(#winShadow)"><rect x="40" y="32" width="1360" height="836" rx="22" fill="#1B1B1D"/></g>
  <g clip-path="url(#winClip)">

    <!-- ===== glass sidebar (frosted, ChatGPT layout) ===== -->
    <rect x="40" y="32" width="250" height="836" fill="#FFFFFF" opacity="0.035"/>
    <rect x="40" y="32" width="250" height="836" fill="url(#sidePurple)"/>
    <rect x="40" y="32" width="250" height="836" fill="url(#sideSheen)"/>
    <rect x="289" y="32" width="1" height="836" fill="#FFFFFF" opacity="0.07"/>
    <!-- traffic lights + sidebar toggle -->
    <circle cx="68" cy="58" r="6.5" fill="#FF5F57"/><circle cx="90" cy="58" r="6.5" fill="#FEBC2E"/><circle cx="112" cy="58" r="6.5" fill="#28C840"/>
    <rect x="252" y="50" width="18" height="16" rx="3" fill="none" stroke="#9A9AA0" stroke-width="1.3"/><line x1="263" y1="50" x2="263" y2="66" stroke="#9A9AA0" stroke-width="1.3"/>

    <!-- brand -->
    <rect x="58" y="92" width="24" height="24" rx="7" fill="#D9633F"/><text x="70" y="109" fill="#FFF" font-size="14" font-weight="800" text-anchor="middle">R</text>
    <text x="92" y="110" fill="#F2F2F4" font-size="15.5" font-weight="700">RiskCalc</text>

    <!-- flat nav list (no group headers) -->
    <g font-size="13.5" font-weight="500" fill="#C9C9CE">
      <rect x="58" y="138" width="13" height="13" rx="3" fill="none" stroke="#9A9AA0" stroke-width="1.3"/>
      <text x="86" y="149">Dashboard</text>
      <path d="M59 188 l4 -6 l4 4 l5 -8" fill="none" stroke="#9A9AA0" stroke-width="1.3" stroke-linecap="round" stroke-linejoin="round"/>
      <text x="86" y="189">Markets</text>
      <!-- active Pricing -->
      <rect x="52" y="208" width="226" height="36" rx="10" fill="#FFFFFF" opacity="0.09"/>
      <path d="M59 228 l7 -7 h6 v6 l-7 7 z" fill="none" stroke="#E0805C" stroke-width="1.4" stroke-linejoin="round"/>
      <text x="86" y="232" fill="#F4F4F6" font-weight="600">Pricing</text>
      <path d="M59 274 h13 M59 278 h13 M59 282 h13" stroke="#9A9AA0" stroke-width="1.3" stroke-linecap="round"/>
      <text x="86" y="283">Portfolio</text>
      <path d="M66 312 l7 12 h-14 z" fill="none" stroke="#9A9AA0" stroke-width="1.3" stroke-linejoin="round"/>
      <text x="86" y="323">Risk</text>
      <circle cx="66" cy="362" r="7" fill="none" stroke="#9A9AA0" stroke-width="1.3"/><path d="M63 362 l2 2 l4 -4" fill="none" stroke="#9A9AA0" stroke-width="1.3" stroke-linecap="round" stroke-linejoin="round"/>
      <text x="86" y="364">Governance</text>
      <path d="M60 404 v-10 M66 404 v-16 M72 404 v-6" stroke="#9A9AA0" stroke-width="1.5" stroke-linecap="round"/>
      <text x="86" y="402">Analytics</text>
      <rect x="58" y="430" width="13" height="13" rx="2" fill="none" stroke="#9A9AA0" stroke-width="1.3"/><line x1="58" y1="436" x2="71" y2="436" stroke="#9A9AA0" stroke-width="1.3"/>
      <text x="86" y="441">Market Data</text>
    </g>

    <!-- user bottom -->
    <rect x="40" y="820" width="250" height="1" fill="#FFFFFF" opacity="0.07"/>
    <circle cx="68" cy="844" r="14" fill="#E5933F"/><text x="68" y="849" fill="#1B1206" font-size="12" font-weight="700" text-anchor="middle">DK</text>
    <text x="92" y="849" fill="#E6E6EA" font-size="13.5" font-weight="600">Dmitrii Kiselev</text>

    <!-- ===== header ===== -->
    <text x="312" y="110" fill="#F2F2F4" font-size="23" font-weight="700">Pricing</text>
    <rect x="440" y="90" width="600" height="34" rx="10" fill="#FFFFFF" opacity="0.05"/>
    <rect x="444" y="94" width="118" height="26" rx="8" fill="#D9633F"/>
    <g font-size="12.5" font-weight="600">
      <text x="503" y="111" fill="#FFFFFF" text-anchor="middle">Fixed Income</text>
      <text x="602" y="111" fill="#9A9AA0" text-anchor="middle">Options</text>
      <text x="678" y="111" fill="#9A9AA0" text-anchor="middle">Equity</text>
      <text x="732" y="111" fill="#9A9AA0" text-anchor="middle">FX</text>
      <text x="790" y="111" fill="#9A9AA0" text-anchor="middle">Swaps</text>
      <text x="880" y="111" fill="#9A9AA0" text-anchor="middle">Structured</text>
      <text x="988" y="111" fill="#9A9AA0" text-anchor="middle">Credit</text>
    </g>

    <!-- instrument + calculate -->
    <rect x="312" y="140" width="300" height="38" rx="10" fill="#FFFFFF" opacity="0.05"/>
    <text x="330" y="164" fill="#F2F2F4" font-size="15" font-weight="600">Bond / OFZ</text>
    <path d="M586 156 l6 6 l6 -6" fill="none" stroke="#8A8A90" stroke-width="1.5" stroke-linecap="round" stroke-linejoin="round"/>
    <rect x="628" y="140" width="150" height="38" rx="10" fill="#D9633F"/>
    <text x="703" y="164" fill="#FFFFFF" font-size="13.5" font-weight="700" text-anchor="middle">Calculate</text>

    <!-- ===== VALUATION CARD (left, scrollable + fixed footer) ===== -->
    <rect x="312" y="192" width="660" height="636" rx="16" fill="#212123"/>
    <rect x="312" y="192" width="660" height="636" rx="16" fill="none" stroke="#FFFFFF" stroke-opacity="0.06"/>

    <g clip-path="url(#valClip)">
      <text x="332" y="222" fill="#8A8A90" font-size="11" letter-spacing="1.5">VALUATION</text>
      <rect x="744" y="208" width="116" height="22" rx="6" fill="#E0B341" opacity="0.14"/>
      <circle cx="761" cy="219" r="3" fill="#E0B341"/><text x="772" y="223" fill="#E0B341" font-size="11" font-weight="600">Approximation</text>
      <rect x="868" y="208" width="84" height="22" rx="6" fill="#3FB984" opacity="0.14"/>
      <circle cx="885" cy="219" r="3" fill="#3FB984"/><text x="896" y="223" fill="#3FB984" font-size="11" font-weight="600">MOEX OK</text>

      <text x="330" y="282" fill="#F2F2F4" font-size="44" font-weight="700">799.39</text>
      <text x="332" y="306" fill="#8A8A90" font-size="11.5">Clean 779.39 · Dirty 799.39 · Accrued 20.00 · snapshot moex-2026-06-02 · fixed_bond v0.1</text>
      <rect x="332" y="320" width="620" height="1" fill="#FFFFFF" opacity="0.06"/>

      <g font-size="13">
        <text x="332" y="350" fill="#8A8A90">YTM</text>            <text x="628" y="350" fill="#EDEDEF" font-weight="600" text-anchor="end">11.63 %</text>
        <text x="664" y="350" fill="#8A8A90">Eff. duration</text>  <text x="948" y="350" fill="#EDEDEF" font-weight="600" text-anchor="end">6.40</text>
        <text x="332" y="374" fill="#8A8A90">Mod. duration</text>  <text x="628" y="374" fill="#EDEDEF" font-weight="600" text-anchor="end">6.42</text>
        <text x="664" y="374" fill="#8A8A90">Convexity</text>      <text x="948" y="374" fill="#EDEDEF" font-weight="600" text-anchor="end">51.2</text>
        <text x="332" y="398" fill="#8A8A90">DV01</text>           <text x="628" y="398" fill="#EDEDEF" font-weight="600" text-anchor="end">0.62</text>
        <text x="664" y="398" fill="#8A8A90">Macaulay dur.</text>  <text x="948" y="398" fill="#EDEDEF" font-weight="600" text-anchor="end">6.81</text>
        <text x="332" y="422" fill="#8A8A90">Z-spread</text>       <text x="628" y="422" fill="#EDEDEF" font-weight="600" text-anchor="end">142 bp</text>
        <text x="664" y="422" fill="#8A8A90">G-spread</text>       <text x="948" y="422" fill="#EDEDEF" font-weight="600" text-anchor="end">128 bp</text>
      </g>
      <rect x="332" y="438" width="620" height="1" fill="#FFFFFF" opacity="0.06"/>

      <text x="332" y="462" fill="#8A8A90" font-size="11" letter-spacing="1">CASHFLOW SCHEDULE</text>
      <g font-size="11" fill="#7A7A80">
        <text x="332" y="481">Date</text><text x="540" y="481" text-anchor="end">Coupon</text><text x="680" y="481" text-anchor="end">Principal</text><text x="800" y="481" text-anchor="end">DF</text><text x="948" y="481" text-anchor="end">PV</text>
      </g>
      <rect x="332" y="487" width="620" height="1" fill="#FFFFFF" opacity="0.06"/>
      <g font-size="12" font-family="'SF Mono','Menlo',monospace">
        <text x="332" y="507" fill="#C9C9CE">2026-12-06</text><text x="540" y="507" fill="#EDEDEF" text-anchor="end">35.00</text><text x="680" y="507" fill="#6E6E73" text-anchor="end">—</text><text x="800" y="507" fill="#C9C9CE" text-anchor="end">0.9432</text><text x="948" y="507" fill="#EDEDEF" text-anchor="end">33.01</text>
        <text x="332" y="531" fill="#C9C9CE">2027-06-06</text><text x="540" y="531" fill="#EDEDEF" text-anchor="end">35.00</text><text x="680" y="531" fill="#6E6E73" text-anchor="end">—</text><text x="800" y="531" fill="#C9C9CE" text-anchor="end">0.8901</text><text x="948" y="531" fill="#EDEDEF" text-anchor="end">31.15</text>
        <text x="332" y="555" fill="#C9C9CE">2027-12-06</text><text x="540" y="555" fill="#EDEDEF" text-anchor="end">35.00</text><text x="680" y="555" fill="#6E6E73" text-anchor="end">—</text><text x="800" y="555" fill="#C9C9CE" text-anchor="end">0.8398</text><text x="948" y="555" fill="#EDEDEF" text-anchor="end">29.39</text>
        <text x="332" y="579" fill="#C9C9CE">2028-06-06</text><text x="540" y="579" fill="#EDEDEF" text-anchor="end">35.00</text><text x="680" y="579" fill="#6E6E73" text-anchor="end">—</text><text x="800" y="579" fill="#C9C9CE" text-anchor="end">0.7923</text><text x="948" y="579" fill="#EDEDEF" text-anchor="end">27.73</text>
        <text x="332" y="603" fill="#C9C9CE">2028-12-06</text><text x="540" y="603" fill="#EDEDEF" text-anchor="end">35.00</text><text x="680" y="603" fill="#6E6E73" text-anchor="end">—</text><text x="800" y="603" fill="#C9C9CE" text-anchor="end">0.7475</text><text x="948" y="603" fill="#EDEDEF" text-anchor="end">26.16</text>
        <text x="332" y="625" fill="#6E6E73">… 14 more rows · final 2036-06-06 incl. principal 1 000.00</text>
      </g>

      <text x="332" y="654" fill="#8A8A90" font-size="11" letter-spacing="1">DISCOUNT CURVE · GCURVE_RUB</text>
      <g font-size="11" fill="#7A7A80">
        <text x="332" y="673">Tenor</text><text x="540" y="673" text-anchor="end">Zero rate</text><text x="720" y="673" text-anchor="end">Disc factor</text>
      </g>
      <rect x="332" y="679" width="620" height="1" fill="#FFFFFF" opacity="0.06"/>
      <g font-size="12" font-family="'SF Mono','Menlo',monospace">
        <text x="332" y="699" fill="#C9C9CE">0.25y</text><text x="540" y="699" fill="#EDEDEF" text-anchor="end">11.80 %</text><text x="720" y="699" fill="#C9C9CE" text-anchor="end">0.9716</text>
        <text x="332" y="723" fill="#C9C9CE">1.00y</text><text x="540" y="723" fill="#EDEDEF" text-anchor="end">12.05 %</text><text x="720" y="723" fill="#C9C9CE" text-anchor="end">0.8901</text>
        <text x="332" y="747" fill="#C9C9CE">5.00y</text><text x="540" y="747" fill="#EDEDEF" text-anchor="end">13.10 %</text><text x="720" y="747" fill="#C9C9CE" text-anchor="end">0.5402</text>
      </g>
    </g>
    <rect x="958" y="200" width="4" height="554" rx="2" fill="#FFFFFF" opacity="0.04"/>
    <rect x="958" y="200" width="4" height="190" rx="2" fill="#FFFFFF" opacity="0.18"/>

    <!-- fixed footer -->
    <rect x="313" y="762" width="658" height="65" fill="#1C1C1E"/>
    <rect x="312" y="762" width="660" height="1" fill="#FFFFFF" opacity="0.07"/>
    <text x="332" y="788" fill="#8A8A90" font-size="11">MARKET VALUE</text>
    <text x="332" y="810" fill="#F2F2F4" font-size="16" font-weight="700">1 998 475 ₽</text>
    <text x="560" y="788" fill="#8A8A90" font-size="11">QTY</text>
    <rect x="560" y="792" width="64" height="32" rx="9" fill="#FFFFFF" opacity="0.06"/><text x="576" y="813" fill="#F2F2F4" font-size="13">2 500</text>
    <rect x="700" y="788" width="252" height="40" rx="11" fill="#D9633F"/>
    <text x="826" y="813" fill="#FFFFFF" font-size="14" font-weight="700" text-anchor="middle">+  Add to portfolio</text>

    <!-- ===== PARAMETERS CARD (right, inputs only) ===== -->
    <rect x="992" y="192" width="384" height="636" rx="16" fill="#212123"/>
    <rect x="992" y="192" width="384" height="636" rx="16" fill="none" stroke="#FFFFFF" stroke-opacity="0.06"/>
    <text x="1012" y="222" fill="#C9C9CE" font-size="14" font-weight="600">Parameters</text>

    <g font-size="13.5" font-weight="500">
      <text x="1012" y="250" fill="#8A8A90" font-size="11">Face value</text>
      <rect x="1012" y="256" width="160" height="34" rx="9" fill="#FFFFFF" opacity="0.05"/><text x="1026" y="278" fill="#F2F2F4">1 000.00</text>
      <text x="1196" y="250" fill="#8A8A90" font-size="11">Coupon</text>
      <rect x="1196" y="256" width="160" height="34" rx="9" fill="#FFFFFF" opacity="0.05"/><text x="1210" y="278" fill="#F2F2F4">7.00 %</text>
      <text x="1012" y="314" fill="#8A8A90" font-size="11">Freq / yr</text>
      <rect x="1012" y="320" width="160" height="34" rx="9" fill="#FFFFFF" opacity="0.05"/><text x="1026" y="342" fill="#F2F2F4">2</text>
      <text x="1196" y="314" fill="#8A8A90" font-size="11">Maturity (y)</text>
      <rect x="1196" y="320" width="160" height="34" rx="9" fill="#FFFFFF" opacity="0.05"/><text x="1210" y="342" fill="#F2F2F4">10</text>
      <text x="1012" y="378" fill="#8A8A90" font-size="11">Settlement</text>
      <rect x="1012" y="384" width="160" height="34" rx="9" fill="#FFFFFF" opacity="0.05"/><text x="1026" y="406" fill="#F2F2F4">2026-06-06</text>
      <text x="1196" y="378" fill="#8A8A90" font-size="11">Flat rate</text>
      <rect x="1196" y="384" width="160" height="34" rx="9" fill="#FFFFFF" opacity="0.05"/><text x="1210" y="406" fill="#F2F2F4">12.00 %</text>
      <text x="1012" y="442" fill="#8A8A90" font-size="11">Day count</text>
      <rect x="1012" y="448" width="160" height="34" rx="9" fill="#FFFFFF" opacity="0.05"/><text x="1026" y="470" fill="#F2F2F4">ACT / 365</text>
      <text x="1196" y="442" fill="#8A8A90" font-size="11">Compounding</text>
      <rect x="1196" y="448" width="160" height="34" rx="9" fill="#FFFFFF" opacity="0.05"/><text x="1210" y="470" fill="#F2F2F4">Semi-annual</text>
      <text x="1012" y="506" fill="#8A8A90" font-size="11">Discount curve</text>
      <rect x="1012" y="512" width="344" height="34" rx="9" fill="#FFFFFF" opacity="0.05"/><text x="1026" y="534" fill="#F2F2F4">GCURVE_RUB · flat</text>
      <text x="1012" y="570" fill="#8A8A90" font-size="11">Projection curve</text>
      <rect x="1012" y="576" width="344" height="34" rx="9" fill="#FFFFFF" opacity="0.05"/><text x="1026" y="598" fill="#F2F2F4">MOSPRIME 3M</text>
    </g>
  </g>

  <text x="720" y="892" fill="#5A5A60" font-size="12" text-anchor="middle">RiskCalc · Pricing — v4 (glass sidebar, flat list, tabular Valuation)</text>
</svg>
