<svg xmlns="http://www.w3.org/2000/svg" width="1440" height="900" viewBox="0 0 1440 900" font-family="'SF Pro Display','SF Pro Text',-apple-system,'Helvetica Neue',Arial,sans-serif">
  <defs>
    <linearGradient id="backdrop" x1="0" y1="0" x2="1" y2="1">
      <stop offset="0" stop-color="#EBEEF4"/><stop offset="0.5" stop-color="#E5E9F1"/><stop offset="1" stop-color="#E1E6EF"/>
    </linearGradient>
    <filter id="blob" x="-60%" y="-60%" width="220%" height="220%"><feGaussianBlur stdDeviation="120"/></filter>
    <filter id="winShadow" x="-20%" y="-20%" width="140%" height="140%"><feDropShadow dx="0" dy="26" stdDeviation="40" flood-color="#3A4256" flood-opacity="0.28"/></filter>
    <filter id="cardShadow" x="-40%" y="-40%" width="180%" height="180%"><feDropShadow dx="0" dy="8" stdDeviation="16" flood-color="#5A6378" flood-opacity="0.18"/></filter>
    <clipPath id="winClip"><rect x="40" y="32" width="1360" height="836" rx="22"/></clipPath>
    <clipPath id="valClip"><rect x="312" y="192" width="660" height="590"/></clipPath>
    <clipPath id="valCard"><rect x="312" y="192" width="660" height="656" rx="16"/></clipPath>
  </defs>

  <rect width="1440" height="900" fill="url(#backdrop)"/>
  <circle cx="220" cy="200" r="220" fill="#B9A6F0" opacity="0.40" filter="url(#blob)"/>
  <circle cx="1280" cy="180" r="200" fill="#F4B9D2" opacity="0.40" filter="url(#blob)"/>
  <circle cx="1180" cy="820" r="240" fill="#A9DEE6" opacity="0.38" filter="url(#blob)"/>

  <g filter="url(#winShadow)"><rect x="40" y="32" width="1360" height="836" rx="22" fill="#FBFBFD"/></g>
  <g clip-path="url(#winClip)">
    <circle cx="74" cy="58" r="6.5" fill="#FF5F57"/><circle cx="96" cy="58" r="6.5" fill="#FEBC2E"/><circle cx="118" cy="58" r="6.5" fill="#28C840"/>

    <!-- ===== sidebar tile ===== -->
    <g filter="url(#cardShadow)"><rect x="52" y="80" width="240" height="768" rx="16" fill="#FFFFFF"/></g>
    <rect x="52" y="80" width="240" height="768" rx="16" fill="none" stroke="#2A2F3A" stroke-opacity="0.08"/>
    <rect x="74" y="104" width="24" height="24" rx="7" fill="#D9633F"/><text x="86" y="121" fill="#FFF" font-size="14" font-weight="800" text-anchor="middle">R</text>
    <text x="106" y="122" fill="#1C2026" font-size="15.5" font-weight="700">RiskCalc</text>

    <g font-size="13.5" font-weight="500" fill="#4A5260">
      <rect x="74" y="157" width="13" height="13" rx="3" fill="none" stroke="#6B7280" stroke-width="1.3"/>
      <text x="104" y="168">Dashboard</text>
      <path d="M75 217 l4 -6 l4 4 l5 -8" fill="none" stroke="#6B7280" stroke-width="1.3" stroke-linecap="round" stroke-linejoin="round"/>
      <text x="104" y="216">Markets</text>
      <rect x="62" y="240" width="220" height="36" rx="10" fill="#D9633F" fill-opacity="0.12"/>
      <path d="M75 260 l7 -7 h6 v6 l-7 7 z" fill="none" stroke="#D9633F" stroke-width="1.4" stroke-linejoin="round"/>
      <text x="104" y="264" fill="#C4502E" font-weight="600">Pricing</text>
      <path d="M75 306 h13 M75 310 h13 M75 314 h13" stroke="#6B7280" stroke-width="1.3" stroke-linecap="round"/>
      <text x="104" y="312">Portfolio</text>
      <path d="M82 350 l7 12 h-14 z" fill="none" stroke="#6B7280" stroke-width="1.3" stroke-linejoin="round"/>
      <text x="104" y="360">Risk</text>
      <circle cx="82" cy="406" r="7" fill="none" stroke="#6B7280" stroke-width="1.3"/><path d="M79 406 l2 2 l4 -4" fill="none" stroke="#6B7280" stroke-width="1.3" stroke-linecap="round" stroke-linejoin="round"/>
      <text x="104" y="408">Governance</text>
      <path d="M76 458 v-10 M82 458 v-16 M88 458 v-6" stroke="#6B7280" stroke-width="1.5" stroke-linecap="round"/>
      <text x="104" y="456">Analytics</text>
      <rect x="74" y="493" width="13" height="13" rx="2" fill="none" stroke="#6B7280" stroke-width="1.3"/><line x1="74" y1="499" x2="87" y2="499" stroke="#6B7280" stroke-width="1.3"/>
      <text x="104" y="504">Market Data</text>
    </g>

    <!-- ===== header ===== -->
    <text x="312" y="110" fill="#1C2026" font-size="23" font-weight="700">Pricing</text>
    <rect x="440" y="90" width="600" height="34" rx="10" fill="#000000" fill-opacity="0.04"/>
    <rect x="444" y="94" width="118" height="26" rx="8" fill="#D9633F"/>
    <g font-size="12.5" font-weight="600">
      <text x="503" y="111" fill="#FFFFFF" text-anchor="middle">Fixed Income</text>
      <text x="602" y="111" fill="#6B7280" text-anchor="middle">Options</text>
      <text x="678" y="111" fill="#6B7280" text-anchor="middle">Equity</text>
      <text x="732" y="111" fill="#6B7280" text-anchor="middle">FX</text>
      <text x="790" y="111" fill="#6B7280" text-anchor="middle">Swaps</text>
      <text x="880" y="111" fill="#6B7280" text-anchor="middle">Structured</text>
      <text x="988" y="111" fill="#6B7280" text-anchor="middle">Credit</text>
    </g>
    <rect x="312" y="140" width="300" height="38" rx="10" fill="#FFFFFF"/>
    <rect x="312" y="140" width="300" height="38" rx="10" fill="none" stroke="#2A2F3A" stroke-opacity="0.12"/>
    <text x="330" y="164" fill="#1C2026" font-size="15" font-weight="600">Bond / OFZ</text>
    <path d="M586 156 l6 6 l6 -6" fill="none" stroke="#8A91A0" stroke-width="1.5" stroke-linecap="round" stroke-linejoin="round"/>
    <rect x="628" y="140" width="150" height="38" rx="10" fill="#D9633F"/>
    <text x="703" y="164" fill="#FFFFFF" font-size="13.5" font-weight="700" text-anchor="middle">Calculate</text>

    <!-- ===== VALUATION CARD ===== -->
    <g filter="url(#cardShadow)"><rect x="312" y="192" width="660" height="656" rx="16" fill="#FFFFFF"/></g>
    <g clip-path="url(#valClip)">
      <text x="332" y="222" fill="#9AA1AC" font-size="11" letter-spacing="1.5">VALUATION</text>
      <rect x="744" y="208" width="116" height="22" rx="6" fill="#E0A800" fill-opacity="0.16"/>
      <circle cx="761" cy="219" r="3" fill="#B5860B"/><text x="772" y="223" fill="#9A7300" font-size="11" font-weight="600">Approximation</text>
      <rect x="868" y="208" width="84" height="22" rx="6" fill="#12A06A" fill-opacity="0.14"/>
      <circle cx="885" cy="219" r="3" fill="#0E8A5A"/><text x="896" y="223" fill="#0E8A5A" font-size="11" font-weight="600">MOEX OK</text>
      <text x="330" y="282" fill="#15181D" font-size="44" font-weight="700">799.39</text>
      <text x="332" y="306" fill="#8A91A0" font-size="11.5">Clean 779.39 · Dirty 799.39 · Accrued 20.00 · snapshot moex-2026-06-02 · fixed_bond v0.1</text>
      <rect x="332" y="320" width="620" height="1" fill="#2A2F3A" opacity="0.08"/>
      <g font-size="13">
        <text x="332" y="350" fill="#8A91A0">YTM</text>            <text x="628" y="350" fill="#1C2026" font-weight="600" text-anchor="end">11.63 %</text>
        <text x="664" y="350" fill="#8A91A0">Eff. duration</text>  <text x="948" y="350" fill="#1C2026" font-weight="600" text-anchor="end">6.40</text>
        <text x="332" y="374" fill="#8A91A0">Mod. duration</text>  <text x="628" y="374" fill="#1C2026" font-weight="600" text-anchor="end">6.42</text>
        <text x="664" y="374" fill="#8A91A0">Convexity</text>      <text x="948" y="374" fill="#1C2026" font-weight="600" text-anchor="end">51.2</text>
        <text x="332" y="398" fill="#8A91A0">DV01</text>           <text x="628" y="398" fill="#1C2026" font-weight="600" text-anchor="end">0.62</text>
        <text x="664" y="398" fill="#8A91A0">Macaulay dur.</text>  <text x="948" y="398" fill="#1C2026" font-weight="600" text-anchor="end">6.81</text>
        <text x="332" y="422" fill="#8A91A0">Z-spread</text>       <text x="628" y="422" fill="#1C2026" font-weight="600" text-anchor="end">142 bp</text>
        <text x="664" y="422" fill="#8A91A0">G-spread</text>       <text x="948" y="422" fill="#1C2026" font-weight="600" text-anchor="end">128 bp</text>
      </g>
      <rect x="332" y="438" width="620" height="1" fill="#2A2F3A" opacity="0.08"/>
      <text x="332" y="462" fill="#9AA1AC" font-size="11" letter-spacing="1">CASHFLOW SCHEDULE</text>
      <g font-size="11" fill="#9AA1AC">
        <text x="332" y="481">Date</text><text x="540" y="481" text-anchor="end">Coupon</text><text x="680" y="481" text-anchor="end">Principal</text><text x="800" y="481" text-anchor="end">DF</text><text x="948" y="481" text-anchor="end">PV</text>
      </g>
      <rect x="332" y="487" width="620" height="1" fill="#2A2F3A" opacity="0.08"/>
      <g font-size="12" font-family="'SF Mono','Menlo',monospace">
        <text x="332" y="507" fill="#3A414C">2026-12-06</text><text x="540" y="507" fill="#15181D" text-anchor="end">35.00</text><text x="680" y="507" fill="#B0B6C0" text-anchor="end">—</text><text x="800" y="507" fill="#3A414C" text-anchor="end">0.9432</text><text x="948" y="507" fill="#15181D" text-anchor="end">33.01</text>
        <text x="332" y="531" fill="#3A414C">2027-06-06</text><text x="540" y="531" fill="#15181D" text-anchor="end">35.00</text><text x="680" y="531" fill="#B0B6C0" text-anchor="end">—</text><text x="800" y="531" fill="#3A414C" text-anchor="end">0.8901</text><text x="948" y="531" fill="#15181D" text-anchor="end">31.15</text>
        <text x="332" y="555" fill="#3A414C">2027-12-06</text><text x="540" y="555" fill="#15181D" text-anchor="end">35.00</text><text x="680" y="555" fill="#B0B6C0" text-anchor="end">—</text><text x="800" y="555" fill="#3A414C" text-anchor="end">0.8398</text><text x="948" y="555" fill="#15181D" text-anchor="end">29.39</text>
        <text x="332" y="579" fill="#3A414C">2028-06-06</text><text x="540" y="579" fill="#15181D" text-anchor="end">35.00</text><text x="680" y="579" fill="#B0B6C0" text-anchor="end">—</text><text x="800" y="579" fill="#3A414C" text-anchor="end">0.7923</text><text x="948" y="579" fill="#15181D" text-anchor="end">27.73</text>
        <text x="332" y="603" fill="#3A414C">2028-12-06</text><text x="540" y="603" fill="#15181D" text-anchor="end">35.00</text><text x="680" y="603" fill="#B0B6C0" text-anchor="end">—</text><text x="800" y="603" fill="#3A414C" text-anchor="end">0.7475</text><text x="948" y="603" fill="#15181D" text-anchor="end">26.16</text>
        <text x="332" y="627" fill="#3A414C">2029-06-06</text><text x="540" y="627" fill="#15181D" text-anchor="end">35.00</text><text x="680" y="627" fill="#B0B6C0" text-anchor="end">—</text><text x="800" y="627" fill="#3A414C" text-anchor="end">0.7052</text><text x="948" y="627" fill="#15181D" text-anchor="end">24.68</text>
        <text x="332" y="649" fill="#9AA1AC">… 13 more rows · final 2036-06-06 incl. principal 1 000.00</text>
      </g>
      <text x="332" y="680" fill="#9AA1AC" font-size="11" letter-spacing="1">DISCOUNT CURVE · GCURVE_RUB</text>
      <g font-size="11" fill="#9AA1AC">
        <text x="332" y="699">Tenor</text><text x="540" y="699" text-anchor="end">Zero rate</text><text x="720" y="699" text-anchor="end">Disc factor</text>
      </g>
      <rect x="332" y="705" width="620" height="1" fill="#2A2F3A" opacity="0.08"/>
      <g font-size="12" font-family="'SF Mono','Menlo',monospace">
        <text x="332" y="725" fill="#3A414C">0.25y</text><text x="540" y="725" fill="#15181D" text-anchor="end">11.80 %</text><text x="720" y="725" fill="#3A414C" text-anchor="end">0.9716</text>
        <text x="332" y="749" fill="#3A414C">1.00y</text><text x="540" y="749" fill="#15181D" text-anchor="end">12.05 %</text><text x="720" y="749" fill="#3A414C" text-anchor="end">0.8901</text>
        <text x="332" y="773" fill="#3A414C">5.00y</text><text x="540" y="773" fill="#15181D" text-anchor="end">13.10 %</text><text x="720" y="773" fill="#3A414C" text-anchor="end">0.5402</text>
      </g>
    </g>
    <rect x="958" y="200" width="4" height="574" rx="2" fill="#2A2F3A" opacity="0.06"/>
    <rect x="958" y="200" width="4" height="200" rx="2" fill="#2A2F3A" opacity="0.22"/>

    <!-- fixed footer (rounded bottom via card clip) -->
    <g clip-path="url(#valCard)"><rect x="312" y="782" width="660" height="70" fill="#F5F7FA"/></g>
    <rect x="312" y="782" width="660" height="1" fill="#2A2F3A" opacity="0.08"/>
    <text x="332" y="808" fill="#8A91A0" font-size="11">MARKET VALUE</text>
    <text x="332" y="830" fill="#15181D" font-size="16" font-weight="700">1 998 475 ₽</text>
    <text x="548" y="820" fill="#8A91A0" font-size="12">QTY</text>
    <rect x="584" y="796" width="72" height="38" rx="9" fill="#FFFFFF"/><rect x="584" y="796" width="72" height="38" rx="9" fill="none" stroke="#2A2F3A" stroke-opacity="0.12"/><text x="600" y="820" fill="#15181D" font-size="13">2 500</text>
    <rect x="684" y="796" width="268" height="38" rx="11" fill="#D9633F"/>
    <text x="818" y="820" fill="#FFFFFF" font-size="14" font-weight="700" text-anchor="middle">+  Add to portfolio</text>
    <rect x="312" y="192" width="660" height="656" rx="16" fill="none" stroke="#2A2F3A" stroke-opacity="0.08"/>

    <!-- ===== PARAMETERS CARD ===== -->
    <g filter="url(#cardShadow)"><rect x="992" y="192" width="384" height="656" rx="16" fill="#FFFFFF"/></g>
    <rect x="992" y="192" width="384" height="656" rx="16" fill="none" stroke="#2A2F3A" stroke-opacity="0.08"/>
    <text x="1012" y="222" fill="#3A414C" font-size="14" font-weight="600">Parameters</text>
    <g font-size="13.5" font-weight="500">
      <text x="1012" y="250" fill="#8A91A0" font-size="11">Face value</text>
      <rect x="1012" y="256" width="160" height="34" rx="9" fill="#F3F5F9"/><text x="1026" y="278" fill="#1C2026">1 000.00</text>
      <text x="1196" y="250" fill="#8A91A0" font-size="11">Coupon</text>
      <rect x="1196" y="256" width="160" height="34" rx="9" fill="#F3F5F9"/><text x="1210" y="278" fill="#1C2026">7.00 %</text>
      <text x="1012" y="314" fill="#8A91A0" font-size="11">Freq / yr</text>
      <rect x="1012" y="320" width="160" height="34" rx="9" fill="#F3F5F9"/><text x="1026" y="342" fill="#1C2026">2</text>
      <text x="1196" y="314" fill="#8A91A0" font-size="11">Maturity (y)</text>
      <rect x="1196" y="320" width="160" height="34" rx="9" fill="#F3F5F9"/><text x="1210" y="342" fill="#1C2026">10</text>
      <text x="1012" y="378" fill="#8A91A0" font-size="11">Settlement</text>
      <rect x="1012" y="384" width="160" height="34" rx="9" fill="#F3F5F9"/><text x="1026" y="406" fill="#1C2026">2026-06-06</text>
      <text x="1196" y="378" fill="#8A91A0" font-size="11">Flat rate</text>
      <rect x="1196" y="384" width="160" height="34" rx="9" fill="#F3F5F9"/><text x="1210" y="406" fill="#1C2026">12.00 %</text>
      <text x="1012" y="442" fill="#8A91A0" font-size="11">Day count</text>
      <rect x="1012" y="448" width="160" height="34" rx="9" fill="#F3F5F9"/><text x="1026" y="470" fill="#1C2026">ACT / 365</text>
      <text x="1196" y="442" fill="#8A91A0" font-size="11">Compounding</text>
      <rect x="1196" y="448" width="160" height="34" rx="9" fill="#F3F5F9"/><text x="1210" y="470" fill="#1C2026">Semi-annual</text>
      <text x="1012" y="506" fill="#8A91A0" font-size="11">Discount curve</text>
      <rect x="1012" y="512" width="344" height="34" rx="9" fill="#F3F5F9"/><text x="1026" y="534" fill="#1C2026">GCURVE_RUB · flat</text>
      <text x="1012" y="570" fill="#8A91A0" font-size="11">Projection curve</text>
      <rect x="1012" y="576" width="344" height="34" rx="9" fill="#F3F5F9"/><text x="1026" y="598" fill="#1C2026">MOSPRIME 3M</text>
      <text x="1012" y="634" fill="#8A91A0" font-size="11">Call schedule</text>
      <rect x="1012" y="640" width="344" height="34" rx="9" fill="#F3F5F9"/><text x="1026" y="662" fill="#9AA1AC">— none —</text>
    </g>
  </g>
  <text x="720" y="892" fill="#9AA1AC" font-size="12" text-anchor="middle">RiskCalc · Pricing — v6 light</text>
</svg>
