<svg xmlns="http://www.w3.org/2000/svg" width="1440" height="900" viewBox="0 0 1440 900" font-family="'SF Pro Display','SF Pro Text',-apple-system,'Helvetica Neue',Arial,sans-serif">
  <defs>
    <linearGradient id="wall" x1="0" y1="0" x2="1" y2="1">
      <stop offset="0" stop-color="#EBEEF4"/><stop offset="0.5" stop-color="#E5E9F1"/><stop offset="1" stop-color="#E1E6EF"/>
    </linearGradient>
    <linearGradient id="winbg" x1="0" y1="0" x2="0" y2="1">
      <stop offset="0" stop-color="#FCFCFE"/><stop offset="1" stop-color="#F4F6FA"/>
    </linearGradient>
    <linearGradient id="accent" x1="0" y1="0" x2="1" y2="1">
      <stop offset="0" stop-color="#F0936B"/><stop offset="1" stop-color="#D9633F"/>
    </linearGradient>
    <linearGradient id="accentGlow" x1="0" y1="0" x2="0" y2="1">
      <stop offset="0" stop-color="#E08464" stop-opacity="0.12"/><stop offset="1" stop-color="#E08464" stop-opacity="0"/>
    </linearGradient>
    <linearGradient id="spark" x1="0" y1="0" x2="0" y2="1">
      <stop offset="0" stop-color="#12A06A" stop-opacity="0.22"/><stop offset="1" stop-color="#12A06A" stop-opacity="0"/>
    </linearGradient>
    <filter id="blob" x="-60%" y="-60%" width="220%" height="220%"><feGaussianBlur stdDeviation="120"/></filter>
    <filter id="winShadow" x="-20%" y="-20%" width="140%" height="140%"><feDropShadow dx="0" dy="28" stdDeviation="42" flood-color="#3A4256" flood-opacity="0.30"/></filter>
    <filter id="cardShadow" x="-30%" y="-30%" width="160%" height="160%"><feDropShadow dx="0" dy="8" stdDeviation="16" flood-color="#5A6378" flood-opacity="0.18"/></filter>
    <clipPath id="winClip"><rect x="40" y="32" width="1360" height="836" rx="28"/></clipPath>
  </defs>

  <rect width="1440" height="900" fill="url(#wall)"/>
  <circle cx="240" cy="180" r="240" fill="#B9A6F0" opacity="0.45" filter="url(#blob)"/>
  <circle cx="1280" cy="160" r="220" fill="#F4B9D2" opacity="0.45" filter="url(#blob)"/>
  <circle cx="1180" cy="820" r="260" fill="#A9DEE6" opacity="0.45" filter="url(#blob)"/>
  <circle cx="360" cy="860" r="220" fill="#F4C2A8" opacity="0.40" filter="url(#blob)"/>

  <g filter="url(#winShadow)"><rect x="40" y="32" width="1360" height="836" rx="28" fill="url(#winbg)"/></g>
  <g clip-path="url(#winClip)">
    <!-- title bar -->
    <circle cx="74" cy="58" r="6.5" fill="#FF5F57"/><circle cx="96" cy="58" r="6.5" fill="#FEBC2E"/><circle cx="118" cy="58" r="6.5" fill="#28C840"/>
    <text x="720" y="63" fill="#9AA1AC" font-size="12.5" font-weight="500" text-anchor="middle">RiskCalc — Pricing</text>

    <!-- ===== floating glass sidebar (Safari light) ===== -->
    <g filter="url(#cardShadow)"><rect x="52" y="80" width="190" height="766" rx="22" fill="#FFFFFF" fill-opacity="0.72"/></g>
    <rect x="52" y="80" width="190" height="766" rx="22" fill="none" stroke="#FFFFFF" stroke-opacity="0.9"/>
    <rect x="52" y="80" width="190" height="766" rx="22" fill="none" stroke="#2A2F3A" stroke-opacity="0.08"/>
    <rect x="70" y="104" width="24" height="24" rx="7" fill="url(#accent)"/>
    <text x="82" y="121" fill="#FFFFFF" font-size="14" font-weight="800" text-anchor="middle">R</text>
    <text x="104" y="122" fill="#1C2026" font-size="15.5" font-weight="700">RiskCalc</text>
    <g font-size="13" font-weight="500" fill="#5A6270">
      <rect x="72" y="160" width="13" height="13" rx="3" fill="none" stroke="#5A6270" stroke-width="1.3"/>
      <text x="100" y="171">Dashboard</text>
      <path d="M73 210 l4 -6 l4 4 l5 -8" fill="none" stroke="#5A6270" stroke-width="1.3" stroke-linecap="round" stroke-linejoin="round"/>
      <text x="100" y="211">Markets</text>
      <rect x="62" y="232" width="170" height="38" rx="12" fill="#D9633F" fill-opacity="0.12"/>
      <rect x="62" y="236" width="3" height="30" rx="1.5" fill="url(#accent)"/>
      <path d="M73 252 l7 -7 h6 v6 l-7 7 z" fill="none" stroke="#D9633F" stroke-width="1.4" stroke-linejoin="round"/>
      <text x="100" y="257" fill="#C4502E" font-weight="700">Pricing</text>
      <path d="M73 302 h13 M73 306 h13 M73 310 h13" stroke="#5A6270" stroke-width="1.3" stroke-linecap="round"/>
      <text x="100" y="311">Portfolio</text>
      <path d="M80 340 l7 12 h-14 z" fill="none" stroke="#5A6270" stroke-width="1.3" stroke-linejoin="round"/>
      <text x="100" y="351">Risk</text>
      <circle cx="80" cy="390" r="7" fill="none" stroke="#5A6270" stroke-width="1.3"/>
      <path d="M77 390 l2 2 l4 -4" fill="none" stroke="#5A6270" stroke-width="1.3" stroke-linecap="round" stroke-linejoin="round"/>
      <text x="100" y="392">Governance</text>
      <path d="M74 432 v-10 M80 432 v-16 M86 432 v-6" stroke="#5A6270" stroke-width="1.5" stroke-linecap="round"/>
      <text x="100" y="430">Analytics</text>
    </g>
    <circle cx="80" cy="816" r="6.5" fill="none" stroke="#8A91A0" stroke-width="1.3"/><circle cx="80" cy="816" r="2" fill="#8A91A0"/>
    <text x="100" y="820" fill="#8A91A0" font-size="13">Settings</text>

    <!-- header: title + type selector -->
    <text x="270" y="110" fill="#1C2026" font-size="23" font-weight="700">Pricing</text>
    <rect x="420" y="90" width="636" height="34" rx="17" fill="#000000" fill-opacity="0.04"/>
    <rect x="424" y="94" width="120" height="26" rx="13" fill="url(#accent)"/>
    <g font-size="12.5" font-weight="600">
      <text x="484" y="111" fill="#FFFFFF" text-anchor="middle">Fixed Income</text>
      <text x="586" y="111" fill="#6B7280" text-anchor="middle">Options</text>
      <text x="664" y="111" fill="#6B7280" text-anchor="middle">Equity</text>
      <text x="720" y="111" fill="#6B7280" text-anchor="middle">FX</text>
      <text x="780" y="111" fill="#6B7280" text-anchor="middle">Swaps</text>
      <text x="872" y="111" fill="#6B7280" text-anchor="middle">Structured</text>
      <text x="980" y="111" fill="#6B7280" text-anchor="middle">Credit</text>
    </g>

    <!-- instrument dropdown + calculate -->
    <rect x="270" y="140" width="300" height="38" rx="12" fill="#FFFFFF"/>
    <rect x="270" y="140" width="300" height="38" rx="12" fill="none" stroke="#2A2F3A" stroke-opacity="0.12"/>
    <text x="288" y="164" fill="#1C2026" font-size="15" font-weight="600">Bond / OFZ</text>
    <path d="M544 156 l6 6 l6 -6" fill="none" stroke="#8A91A0" stroke-width="1.5" stroke-linecap="round" stroke-linejoin="round"/>
    <rect x="586" y="140" width="150" height="38" rx="12" fill="url(#accent)"/>
    <text x="661" y="164" fill="#FFFFFF" font-size="13.5" font-weight="700" text-anchor="middle">Calculate</text>

    <!-- ===== RESULT CARD ===== -->
    <g filter="url(#cardShadow)"><rect x="264" y="192" width="692" height="636" rx="20" fill="#FFFFFF"/></g>
    <rect x="264" y="192" width="692" height="150" rx="20" fill="url(#accentGlow)"/>
    <rect x="264" y="192" width="692" height="636" rx="20" fill="none" stroke="#2A2F3A" stroke-opacity="0.08"/>
    <text x="284" y="222" fill="#9AA1AC" font-size="11" letter-spacing="1.5">VALUATION</text>
    <rect x="712" y="208" width="118" height="22" rx="11" fill="#E0A800" fill-opacity="0.14"/>
    <circle cx="729" cy="219" r="3" fill="#B5860B"/><text x="740" y="223" fill="#9A7300" font-size="11" font-weight="600">Approximation</text>
    <rect x="838" y="208" width="80" height="22" rx="11" fill="#12A06A" fill-opacity="0.14"/>
    <circle cx="855" cy="219" r="3" fill="#0E8A5A"/><text x="866" y="223" fill="#0E8A5A" font-size="11" font-weight="600">MOEX OK</text>

    <text x="282" y="288" fill="#15181D" font-size="46" font-weight="700">799.39</text>
    <text x="284" y="312" fill="#8A91A0" font-size="11.5">Clean 779.39  ·  Dirty 799.39  ·  Accrued 20.00  ·  snapshot moex-2026-06-02  ·  fixed_bond v0.1</text>
    <rect x="284" y="326" width="652" height="1" fill="#2A2F3A" opacity="0.08"/>

    <g>
      <rect x="284" y="340" width="207" height="66" rx="13" fill="#F3F5F9"/>
      <text x="300" y="364" fill="#8A91A0" font-size="11">YTM</text><text x="300" y="392" fill="#1C2026" font-size="20" font-weight="700">11.63%</text>
      <rect x="507" y="340" width="207" height="66" rx="13" fill="#F3F5F9"/>
      <text x="523" y="364" fill="#8A91A0" font-size="11">Current yield</text><text x="523" y="392" fill="#1C2026" font-size="20" font-weight="700">8.76%</text>
      <rect x="730" y="340" width="206" height="66" rx="13" fill="#F3F5F9"/>
      <text x="746" y="364" fill="#8A91A0" font-size="11">Macaulay dur.</text><text x="746" y="392" fill="#1C2026" font-size="20" font-weight="700">6.81</text>
      <rect x="284" y="420" width="207" height="66" rx="13" fill="#F3F5F9"/>
      <text x="300" y="444" fill="#8A91A0" font-size="11">Mod. duration</text><text x="300" y="472" fill="#1C2026" font-size="20" font-weight="700">6.42</text>
      <rect x="507" y="420" width="207" height="66" rx="13" fill="#F3F5F9"/>
      <text x="523" y="444" fill="#8A91A0" font-size="11">Eff. duration</text><text x="523" y="472" fill="#1C2026" font-size="20" font-weight="700">6.40</text>
      <rect x="730" y="420" width="206" height="66" rx="13" fill="#F3F5F9"/>
      <text x="746" y="444" fill="#8A91A0" font-size="11">Convexity</text><text x="746" y="472" fill="#1C2026" font-size="20" font-weight="700">51.2</text>
      <rect x="284" y="500" width="207" height="66" rx="13" fill="#F3F5F9"/>
      <text x="300" y="524" fill="#8A91A0" font-size="11">DV01</text><text x="300" y="552" fill="#1C2026" font-size="20" font-weight="700">0.62</text>
      <rect x="507" y="500" width="207" height="66" rx="13" fill="#F3F5F9"/>
      <text x="523" y="524" fill="#8A91A0" font-size="11">Z-spread</text><text x="523" y="552" fill="#1C2026" font-size="20" font-weight="700">142 bp</text>
      <rect x="730" y="500" width="206" height="66" rx="13" fill="#F3F5F9"/>
      <text x="746" y="524" fill="#8A91A0" font-size="11">G-spread</text><text x="746" y="552" fill="#1C2026" font-size="20" font-weight="700">128 bp</text>
    </g>

    <text x="284" y="592" fill="#9AA1AC" font-size="11" letter-spacing="1">KEY-RATE DV01</text>
    <path d="M300 648 C 360 640, 420 620, 500 606 S 660 584, 760 596 S 900 624, 920 632"
          fill="none" stroke="#0E8A5A" stroke-width="2.5" stroke-linecap="round"/>
    <path d="M300 648 C 360 640, 420 620, 500 606 S 660 584, 760 596 S 900 624, 920 632 L 920 666 L 300 666 Z" fill="url(#spark)"/>
    <g fill="#0E8A5A"><circle cx="300" cy="648" r="3"/><circle cx="500" cy="606" r="3"/><circle cx="760" cy="596" r="3"/><circle cx="920" cy="632" r="3"/></g>
    <g fill="#9AA1AC" font-size="10"><text x="300" y="682">1y</text><text x="494" y="682">5y</text><text x="752" y="682">10y</text><text x="906" y="682">20y</text></g>

    <rect x="284" y="696" width="652" height="34" rx="11" fill="#F4D35E" fill-opacity="0.18"/>
    <text x="302" y="718" fill="#8A6A00" font-size="11.5">⚠  Demo / manual market data — not production-validated.</text>
    <text x="284" y="762" fill="#8A91A0" font-size="11">QTY</text>
    <rect x="318" y="748" width="64" height="32" rx="9" fill="#F3F5F9"/><text x="334" y="769" fill="#1C2026" font-size="13">1</text>
    <rect x="398" y="748" width="190" height="32" rx="10" fill="none" stroke="#D9633F" stroke-width="1.4"/>
    <text x="493" y="769" fill="#C4502E" font-size="12.5" font-weight="600" text-anchor="middle">+ Add to portfolio</text>
    <text x="606" y="769" fill="#0E8A5A" font-size="12">✓ added</text>

    <!-- ===== PARAMETERS CARD (scrollable) ===== -->
    <g filter="url(#cardShadow)"><rect x="972" y="192" width="404" height="636" rx="20" fill="#FFFFFF"/></g>
    <rect x="972" y="192" width="404" height="636" rx="20" fill="none" stroke="#2A2F3A" stroke-opacity="0.08"/>
    <text x="992" y="224" fill="#3A414C" font-size="14" font-weight="600">Parameters</text>
    <rect x="1356" y="210" width="4" height="600" rx="2" fill="#2A2F3A" opacity="0.06"/>
    <rect x="1356" y="210" width="4" height="150" rx="2" fill="#2A2F3A" opacity="0.22"/>

    <g font-size="13.5" font-weight="500">
      <text x="992" y="252" fill="#8A91A0" font-size="11">Face value</text>
      <rect x="992" y="258" width="172" height="34" rx="10" fill="#F3F5F9"/><text x="1006" y="280" fill="#1C2026">1 000.00</text>
      <text x="1176" y="252" fill="#8A91A0" font-size="11">Coupon</text>
      <rect x="1176" y="258" width="182" height="34" rx="10" fill="#F3F5F9"/><text x="1190" y="280" fill="#1C2026">7.00 %</text>
      <text x="992" y="312" fill="#8A91A0" font-size="11">Freq / yr</text>
      <rect x="992" y="318" width="172" height="34" rx="10" fill="#F3F5F9"/><text x="1006" y="340" fill="#1C2026">2</text>
      <text x="1176" y="312" fill="#8A91A0" font-size="11">Maturity (y)</text>
      <rect x="1176" y="318" width="182" height="34" rx="10" fill="#F3F5F9"/><text x="1190" y="340" fill="#1C2026">10</text>
      <text x="992" y="372" fill="#8A91A0" font-size="11">Settlement</text>
      <rect x="992" y="378" width="172" height="34" rx="10" fill="#F3F5F9"/><text x="1006" y="400" fill="#1C2026">2026-06-06</text>
      <text x="1176" y="372" fill="#8A91A0" font-size="11">Flat rate</text>
      <rect x="1176" y="378" width="182" height="34" rx="10" fill="#F3F5F9"/><text x="1190" y="400" fill="#1C2026">12.00 %</text>
      <text x="992" y="432" fill="#8A91A0" font-size="11">Day count</text>
      <rect x="992" y="438" width="172" height="34" rx="10" fill="#F3F5F9"/><text x="1006" y="460" fill="#1C2026">ACT / 365</text>
      <text x="1176" y="432" fill="#8A91A0" font-size="11">Compounding</text>
      <rect x="1176" y="438" width="182" height="34" rx="10" fill="#F3F5F9"/><text x="1190" y="460" fill="#1C2026">Semi-annual</text>
      <text x="992" y="492" fill="#8A91A0" font-size="11">Discount curve</text>
      <rect x="992" y="498" width="366" height="34" rx="10" fill="#F3F5F9"/><text x="1006" y="520" fill="#1C2026">GCURVE_RUB · flat</text>
      <text x="992" y="552" fill="#8A91A0" font-size="11">Projection curve</text>
      <rect x="992" y="558" width="366" height="34" rx="10" fill="#F3F5F9"/><text x="1006" y="580" fill="#1C2026">MOSPRIME 3M</text>
    </g>

    <text x="992" y="618" fill="#9AA1AC" font-size="11" letter-spacing="1">CASHFLOW SCHEDULE</text>
    <line x1="992" y1="700" x2="1358" y2="700" stroke="#2A2F3A" stroke-opacity="0.08"/>
    <g fill="#E08464">
      <rect x="996" y="686" width="14" height="14" rx="2" opacity="0.7"/>
      <rect x="1022" y="686" width="14" height="14" rx="2" opacity="0.7"/>
      <rect x="1048" y="686" width="14" height="14" rx="2" opacity="0.7"/>
      <rect x="1074" y="686" width="14" height="14" rx="2" opacity="0.7"/>
      <rect x="1100" y="686" width="14" height="14" rx="2" opacity="0.7"/>
      <rect x="1126" y="686" width="14" height="14" rx="2" opacity="0.7"/>
      <rect x="1152" y="686" width="14" height="14" rx="2" opacity="0.7"/>
      <rect x="1178" y="686" width="14" height="14" rx="2" opacity="0.7"/>
      <rect x="1204" y="686" width="14" height="14" rx="2" opacity="0.7"/>
      <rect x="1230" y="686" width="14" height="14" rx="2" opacity="0.7"/>
      <rect x="1256" y="686" width="14" height="14" rx="2" opacity="0.7"/>
    </g>
    <rect x="1282" y="640" width="14" height="60" rx="2" fill="url(#accent)"/>
    <g fill="#9AA1AC" font-size="9.5"><text x="996" y="714">0.5y</text><text x="1270" y="714">10y</text></g>

    <text x="992" y="742" fill="#9AA1AC" font-size="11" letter-spacing="1">DISCOUNT CURVE · GCURVE_RUB</text>
    <path d="M996 800 C 1060 788, 1140 770, 1220 766 S 1330 772, 1356 776" fill="none" stroke="#3E7BD6" stroke-width="2" stroke-linecap="round"/>
    <g fill="#9AA1AC" font-size="9.5"><text x="996" y="818">1y</text><text x="1190" y="818">10y</text><text x="1336" y="818">20y</text></g>
  </g>

  <text x="720" y="892" fill="#9AA1AC" font-size="12" text-anchor="middle">RiskCalc · Pricing — light (Liquid Glass, macOS 2026)</text>
</svg>
